<?xml version="1.0" standalone="no"?>
<!DOCTYPE svg PUBLIC "-//W3C//DTD SVG 20010904//EN"
 "http://www.w3.org/TR/2001/REC-SVG-20010904/DTD/svg10.dtd">
<svg version="1.0" xmlns="http://www.w3.org/2000/svg"
 width="800.000000pt" height="800.000000pt" viewBox="0 0 800.000000 800.000000"
 preserveAspectRatio="xMidYMid meet">
<metadata>
Created by potrace 1.14, written by Peter Selinger 2001-2017
</metadata>
<g transform="translate(0.000000,800.000000) scale(0.100000,-0.100000)"
fill="#000000" stroke="none">
<path d="M3681 7691 l24 -19 -63 -13 c-34 -7 -62 -16 -62 -19 0 -3 -28 -7 -61
-8 -34 -2 -70 -7 -80 -12 -10 -6 -31 -10 -48 -10 -21 0 -31 -5 -31 -15 0 -8
-9 -15 -19 -15 -11 0 -23 -4 -26 -10 -3 -5 -15 -10 -25 -10 -10 0 -31 -11 -46
-25 -18 -17 -39 -25 -61 -25 -19 0 -32 -4 -28 -10 3 -5 -12 -18 -34 -29 -22
-12 -42 -29 -46 -40 -3 -10 -16 -22 -28 -25 -49 -12 -137 -113 -137 -157 0 -8
-14 -20 -31 -26 -17 -7 -28 -16 -25 -21 3 -5 -6 -19 -19 -30 -14 -12 -25 -26
-25 -30 0 -5 -20 -31 -45 -58 -25 -27 -45 -53 -45 -59 0 -6 -9 -16 -20 -23
-14 -9 -19 -20 -16 -37 3 -17 -2 -29 -17 -40 -18 -13 -19 -15 -4 -15 20 0 20
-1 5 -37 -11 -27 -16 -58 -21 -118 -1 -16 -6 -35 -10 -42 -4 -6 -9 -33 -12
-60 -3 -26 -7 -59 -10 -73 -2 -14 -10 -52 -16 -85 -7 -33 -11 -71 -10 -85 4
-41 3 -52 -5 -110 -4 -30 -6 -65 -6 -77 2 -32 1 -42 -3 -183 -3 -117 -4 -152
-2 -305 0 -33 -3 -68 -7 -77 -6 -13 -4 -18 7 -18 8 0 17 -9 20 -19 4 -17 1
-18 -27 -10 -17 5 -31 9 -31 9 0 0 1 -18 3 -40 2 -22 1 -47 -2 -56 -5 -14 -10
-13 -31 10 -13 14 -29 26 -34 26 -16 0 -29 -31 -34 -80 -3 -25 -12 -81 -21
-125 -20 -98 -20 -172 -2 -215 l14 -33 14 24 c8 13 23 63 33 111 11 55 24 93
36 104 11 9 19 25 19 34 0 9 9 25 19 34 22 20 24 17 36 -61 4 -24 10 -43 13
-43 33 1 114 305 137 513 5 46 11 61 31 73 13 9 24 23 24 30 0 8 4 14 10 14
22 0 118 280 103 303 -3 5 -1 19 5 30 5 12 14 40 20 62 33 126 45 158 63 162
11 3 19 10 19 15 0 6 6 8 13 5 8 -3 14 3 14 14 2 28 24 44 56 44 15 -1 27 3
27 7 0 4 -7 8 -15 8 -24 0 -17 18 11 32 15 7 27 18 27 23 0 11 27 34 41 35 5
0 3 -6 -3 -14 -8 -10 -9 -16 -1 -21 5 -3 14 5 19 18 6 16 22 29 43 35 101 30
117 36 122 48 3 8 11 14 18 14 6 0 24 12 40 27 26 25 34 26 120 27 51 0 107
-3 123 -6 80 -16 95 -21 95 -30 0 -6 11 -7 25 -4 17 4 25 2 25 -6 0 -8 13 -13
31 -14 17 -1 35 -7 39 -14 4 -7 12 -10 18 -6 6 3 13 2 17 -4 4 -6 10 -8 15 -5
5 3 19 1 31 -6 16 -8 20 -8 14 1 -4 7 -2 10 6 8 17 -3 79 22 97 39 7 7 27 13
43 13 16 0 29 4 29 10 0 10 49 11 128 3 27 -3 42 -9 42 -18 0 -10 7 -12 29 -5
31 9 78 -8 74 -27 -2 -10 50 -28 70 -24 11 2 9 -13 -4 -26 -15 -15 -3 -34 16
-26 9 3 15 -1 15 -10 0 -20 29 -30 46 -16 18 15 46 4 83 -31 22 -22 41 -30 66
-30 19 0 35 5 35 10 0 21 21 9 31 -17 9 -25 12 -26 20 -10 13 23 32 22 24 -2
-3 -11 -1 -22 5 -26 5 -3 10 2 10 12 0 15 2 15 10 3 5 -9 5 -19 -2 -27 -5 -7
-8 -18 -6 -24 2 -7 10 3 17 22 18 49 26 62 39 67 8 2 10 -10 7 -42 -3 -29 0
-50 9 -58 8 -9 10 -21 5 -33 -14 -36 -10 -52 7 -30 8 11 23 29 33 41 10 12 21
27 24 35 3 8 6 2 6 -13 1 -26 21 -42 21 -17 0 5 4 8 9 5 5 -3 7 -24 4 -47 -3
-23 -1 -44 4 -48 15 -9 26 -91 12 -91 -5 0 -8 -8 -5 -18 4 -11 -1 -23 -13 -32
-19 -13 -19 -14 -3 -26 16 -12 16 -16 -1 -64 -10 -28 -15 -60 -12 -70 4 -12 2
-20 -4 -20 -6 0 -11 -10 -11 -23 0 -13 -5 -28 -10 -33 -12 -12 15 -74 33 -74
7 0 6 -4 -3 -10 -8 -5 -15 -17 -15 -26 0 -10 -6 -19 -12 -21 -7 -3 -13 2 -13
11 0 10 -6 13 -16 9 -9 -3 -13 -12 -8 -22 4 -9 6 -26 5 -39 0 -13 3 -20 9 -17
6 3 10 1 10 -4 0 -22 21 -10 31 17 l11 27 15 -39 c15 -36 15 -41 -2 -72 -12
-22 -15 -42 -11 -60 6 -22 9 -25 17 -13 7 12 9 11 9 -3 0 -11 5 -15 14 -12 17
6 27 -27 15 -49 -6 -10 -5 -18 1 -22 5 -3 10 -12 10 -20 0 -21 50 -67 66 -61
8 3 13 9 12 13 -2 4 2 9 7 10 6 2 15 -12 21 -30 7 -22 13 -27 17 -17 4 10 6 8
6 -7 1 -13 7 -23 14 -23 8 0 7 -4 -3 -10 -13 -8 -12 -10 3 -10 17 0 18 -6 11
-57 -3 -32 -9 -62 -12 -68 -11 -17 -12 -45 -3 -45 9 0 17 -25 27 -83 2 -12 8
-44 13 -72 12 -61 13 -146 3 -162 -6 -9 -12 -7 -25 7 -14 17 -20 18 -36 9 -19
-12 -18 -49 1 -49 6 0 8 -9 5 -20 -6 -22 8 -28 16 -7 3 6 6 2 6 -11 1 -14 -3
-21 -10 -17 -6 5 -10 -10 -10 -42 0 -26 -2 -83 -5 -126 l-6 -78 -24 16 c-27
17 -49 11 -40 -12 4 -9 1 -12 -7 -7 -9 5 -9 4 1 -7 19 -21 14 -39 -12 -39 -13
0 -26 -7 -30 -15 -9 -23 -21 -18 -47 20 -18 26 -29 33 -44 29 -16 -4 -17 -3
-5 5 12 8 9 12 -13 20 -55 21 -78 24 -72 10 4 -10 -3 -14 -24 -14 -22 0 -27 3
-19 13 8 9 6 12 -8 12 -11 0 -24 -8 -30 -18 -10 -15 -24 -18 -82 -17 -61 2
-81 7 -148 41 -42 21 -79 47 -82 57 -2 9 -10 17 -16 17 -7 0 -22 9 -34 20 -12
11 -28 20 -36 20 -26 0 -46 12 -47 29 0 10 -2 11 -6 4 -6 -17 -26 -17 -21 -1
5 15 -27 42 -62 53 -28 9 -43 23 -53 48 -3 9 -13 17 -22 17 -8 0 -15 5 -15 11
0 6 -9 9 -19 6 -22 -5 -95 59 -85 74 3 5 -1 9 -8 9 -8 0 -20 16 -27 36 -11 30
-11 38 0 45 9 5 10 9 3 9 -7 0 -14 7 -18 15 -4 13 -2 13 14 5 10 -5 22 -19 25
-30 3 -11 12 -20 20 -20 10 0 12 7 5 29 -4 16 -6 32 -2 35 3 3 0 6 -6 6 -7 0
-12 -6 -12 -12 0 -7 -6 -2 -13 12 -15 27 -12 44 3 20 8 -13 10 -12 10 2 0 9
-4 19 -10 23 -5 3 -7 12 -4 20 3 8 -5 21 -20 30 -25 17 -36 55 -16 55 6 0 10
-7 10 -16 0 -18 38 -53 58 -54 7 0 15 -6 18 -14 6 -17 103 -80 111 -72 3 3 25
-6 49 -20 24 -14 51 -24 61 -22 12 2 -3 14 -41 32 -57 27 -97 56 -78 56 5 0
12 -3 16 -7 4 -4 24 -8 45 -9 57 -3 87 -14 70 -25 -20 -13 7 -12 31 1 13 7 21
7 25 0 4 -6 16 -8 27 -4 14 4 18 2 14 -5 -4 -6 0 -11 8 -11 9 0 16 -4 16 -9 0
-6 15 -4 33 3 17 8 61 17 97 20 41 4 67 12 73 21 4 8 30 17 57 21 49 7 64 19
35 30 -8 4 -15 13 -15 21 0 8 -5 13 -11 11 -6 -2 -10 -8 -9 -13 3 -19 -114
-46 -187 -43 -40 1 -73 6 -73 10 0 4 -11 8 -25 8 -14 0 -25 5 -25 11 0 6 8 8
19 4 14 -4 23 1 33 17 7 13 12 28 13 33 0 6 31 9 75 8 103 -3 201 -13 196 -21
-6 -10 15 -35 42 -49 31 -18 35 -16 18 9 -25 36 -19 38 33 13 30 -15 51 -32
54 -46 5 -19 8 -20 21 -9 13 10 16 10 16 -4 0 -10 5 -14 10 -11 6 3 10 0 10
-7 0 -17 94 -78 119 -78 15 0 18 5 14 23 -3 12 -10 27 -15 34 -6 7 -5 14 2 18
14 9 5 51 -18 79 -13 16 -26 20 -56 18 -21 -2 -43 1 -49 7 -8 8 -2 11 18 11
39 1 85 37 64 51 -19 12 -26 11 -32 -5 -6 -15 -75 -27 -83 -14 -3 4 -16 8 -30
8 -37 0 -74 23 -113 69 -19 23 -41 41 -50 41 -9 0 -26 6 -37 14 -11 8 -42 19
-70 25 -125 26 -147 32 -177 45 -18 8 -41 16 -51 18 -26 4 -26 20 -1 25 68 13
154 9 209 -10 48 -16 56 -22 41 -28 -16 -6 -16 -8 -4 -8 9 -1 33 -8 54 -17 34
-14 36 -16 20 -28 -14 -10 -15 -15 -5 -21 9 -6 11 -4 5 5 -5 9 -2 10 13 6 11
-4 23 -2 27 4 12 19 26 11 15 -9 -9 -18 -7 -19 27 -14 21 4 34 2 30 -3 -8 -14
72 -61 116 -67 22 -4 35 -2 32 4 -4 5 1 9 9 9 11 0 15 7 12 23 -3 12 -5 29 -5
38 -1 9 -12 33 -26 53 -14 21 -21 35 -15 31 5 -3 10 -2 10 4 0 5 -6 12 -12 14
-10 4 -10 6 0 6 7 1 10 5 7 11 -7 12 -92 50 -112 50 -8 0 -11 5 -7 12 4 7 3 8
-5 4 -6 -4 -22 5 -36 22 -17 20 -45 36 -83 47 -31 9 -64 20 -72 23 -8 3 -21 4
-27 3 -7 -1 -24 5 -37 14 -19 13 -38 15 -83 10 -89 -11 -141 -10 -220 4 -52 9
-77 9 -92 2 -29 -16 -51 -13 -51 6 0 13 -3 14 -12 5 -9 -9 -16 -8 -32 6 -16
14 -29 17 -51 11 -16 -3 -24 -7 -17 -8 6 0 12 -8 12 -17 0 -8 -5 -12 -10 -9
-14 8 -37 -16 -37 -38 0 -12 10 -20 29 -24 38 -7 36 -21 -2 -15 -17 2 -30 0
-30 -6 0 -6 -3 -17 -6 -26 -5 -12 0 -16 17 -17 16 0 19 -3 9 -6 -27 -11 -30
-28 -7 -46 21 -17 21 -18 4 -31 -11 -8 -25 -12 -32 -10 -13 5 -33 -10 -63 -48
-11 -13 -11 -25 -1 -60 7 -24 11 -53 10 -66 -3 -23 25 -119 39 -137 5 -5 10
-23 12 -40 2 -21 8 -29 20 -27 20 3 35 -17 19 -27 -8 -5 -8 -17 0 -42 25 -83
20 -89 -76 -86 -64 2 -70 0 -70 -18 0 -17 -6 -19 -42 -17 -43 4 -52 -6 -43
-43 2 -5 3 -19 4 -30 2 -29 15 -45 37 -45 11 0 17 -4 14 -10 -4 -6 6 -10 23
-10 16 0 32 -3 36 -7 21 -21 47 -9 94 42 53 58 81 68 104 38 7 -10 24 -19 38
-21 38 -3 70 -46 70 -92 0 -39 -13 -59 -25 -40 -5 8 -11 8 -20 0 -7 -6 -20 -8
-29 -4 -9 3 -16 1 -16 -5 0 -7 -6 -11 -12 -10 -7 1 -33 -7 -58 -19 -34 -16
-55 -19 -85 -13 -22 4 -74 7 -116 6 -61 0 -81 -4 -98 -19 -12 -11 -21 -14 -21
-9 0 6 -7 14 -16 17 -14 5 -15 4 -4 -9 14 -17 0 -21 -17 -4 -7 7 -36 20 -65
31 -51 18 -76 37 -111 88 -13 19 -17 21 -17 7 0 -9 -17 -28 -38 -42 -41 -27
-77 -25 -85 6 -3 11 -11 17 -19 14 -21 -8 -68 33 -68 58 0 12 16 47 35 77 37
60 33 82 -10 62 -14 -6 -25 -16 -25 -22 0 -5 -11 -10 -24 -10 -14 0 -28 -5
-31 -10 -4 -6 -12 -10 -18 -9 -31 5 -132 -63 -140 -93 -3 -11 -10 -17 -16 -13
-6 3 -11 1 -11 -4 0 -6 -6 -11 -14 -11 -8 0 -17 -13 -21 -30 -4 -16 -10 -28
-15 -27 -4 1 -19 -10 -33 -25 -14 -15 -28 -24 -31 -20 -4 3 -9 -4 -13 -16 -3
-12 -12 -22 -19 -22 -17 0 -18 22 -2 38 17 17 -6 32 -49 32 -20 0 -37 7 -45
19 -7 10 -25 21 -38 22 -23 4 -25 1 -24 -38 0 -35 -3 -43 -25 -53 -14 -7 -38
-18 -53 -25 -28 -14 -28 -14 -29 18 -2 40 -3 48 -12 117 -8 57 -14 144 -22
287 -5 95 -17 126 -47 121 -14 -2 -27 -19 -40 -53 -35 -86 -11 -225 37 -225 7
0 23 -8 34 -18 20 -15 21 -21 12 -62 -5 -25 -6 -49 -2 -53 8 -8 0 -71 -17
-124 -8 -24 -7 -33 3 -37 13 -5 21 -72 29 -266 2 -52 11 -131 21 -175 9 -44
25 -127 35 -185 11 -58 26 -118 35 -135 14 -29 47 -105 49 -115 2 -7 38 -62
51 -77 5 -6 21 -28 35 -48 30 -44 48 -64 83 -89 15 -10 25 -22 22 -26 -3 -4 2
-13 10 -20 9 -7 27 -36 41 -64 14 -28 31 -54 37 -58 8 -5 7 -11 -2 -22 -11
-13 -11 -20 3 -41 13 -19 14 -30 6 -45 -11 -20 -23 -123 -21 -178 2 -42 -10
-63 -20 -36 -4 10 -8 33 -8 51 -1 17 -5 34 -10 37 -7 5 -161 -221 -344 -503
-23 -36 -49 -68 -57 -71 -8 -4 -28 -14 -45 -23 -16 -9 -55 -29 -85 -45 -30
-15 -68 -36 -85 -45 -30 -16 -150 -69 -260 -114 -33 -13 -78 -33 -101 -43 -22
-11 -60 -27 -84 -35 -24 -9 -65 -28 -90 -44 -61 -38 -117 -65 -165 -81 -22 -7
-54 -21 -71 -31 -28 -17 -85 -39 -249 -98 -63 -23 -207 -95 -260 -130 -22 -15
-53 -32 -68 -39 -65 -28 -208 -158 -282 -256 -83 -112 -174 -346 -266 -691
-22 -82 -73 -251 -114 -375 -69 -208 -135 -441 -135 -476 0 -12 521 -14 3895
-14 l3895 0 0 833 -1 832 -82 48 c-104 61 -245 161 -333 238 -49 42 -97 71
-164 100 -52 23 -133 63 -180 90 -47 26 -136 69 -198 94 -63 25 -150 64 -194
86 -44 22 -137 62 -207 88 -69 27 -211 84 -316 129 -365 154 -584 238 -689
262 -64 14 -73 19 -97 55 -34 52 -89 161 -189 375 -46 96 -91 187 -102 203
-22 30 -38 28 -38 -7 0 -12 -5 -27 -12 -34 -14 -14 -42 -16 -33 -2 3 5 10 60
16 122 8 91 7 114 -4 125 -19 19 -36 -3 -43 -54 -9 -61 -13 -70 -24 -53 -5 8
-7 22 -5 30 3 8 7 35 10 60 3 24 10 47 16 51 5 3 9 10 8 15 -3 12 12 66 21 79
4 6 10 24 13 40 3 17 19 95 36 175 47 218 51 239 51 284 0 62 10 88 29 81 34
-14 121 -18 121 -6 0 6 -9 11 -21 11 -12 0 -33 13 -49 30 -15 16 -30 26 -34
23 -3 -3 -6 -2 -6 3 0 5 15 18 34 28 27 14 40 16 69 8 26 -7 38 -7 42 1 3 7 3
-1 1 -16 -2 -17 1 -26 8 -24 6 2 11 9 10 15 -1 7 -2 20 -2 31 -2 13 -8 17 -25
14 -27 -5 -42 10 -60 62 -12 34 -14 36 -29 21 -9 -8 -18 -21 -21 -28 -4 -10
-7 -11 -18 0 -10 10 -11 19 -1 45 7 18 12 48 12 66 0 25 4 32 15 27 18 -7 19
-2 3 23 -6 10 -8 26 -5 35 19 49 52 -21 41 -89 l-7 -48 34 7 c18 3 36 11 40
17 3 6 4 43 2 82 -3 40 -4 86 -3 102 0 17 1 50 1 74 0 38 2 43 14 30 24 -25
35 -119 19 -158 -17 -40 -10 -50 37 -57 29 -5 39 -1 69 29 29 28 39 49 55 115
11 44 23 78 28 75 5 -3 6 -22 2 -42 -22 -109 -23 -113 -11 -101 6 6 12 14 12
18 1 4 5 18 10 31 6 22 8 23 14 6 6 -17 8 -17 27 4 43 46 65 210 51 371 -14
160 -35 181 -128 129 -22 -12 -43 -20 -46 -16 -4 4 0 26 9 49 11 28 14 45 7
52 -13 13 -13 29 0 21 9 -5 15 37 11 72 -1 6 2 14 7 17 5 3 5 32 1 64 -3 33
-5 83 -3 113 19 294 18 514 -1 709 -9 88 -9 90 -16 90 -9 0 -24 47 -28 85 -1
11 -15 35 -31 54 -17 18 -30 39 -30 46 0 7 -11 20 -25 29 -15 10 -25 26 -25
40 0 13 -7 37 -15 52 -8 16 -15 41 -15 56 0 37 -39 150 -56 164 -8 6 -14 19
-14 28 0 9 -4 15 -10 14 -5 -2 -19 11 -32 28 -51 70 -132 160 -157 174 -14 8
-32 21 -39 28 -8 7 -28 20 -45 28 -18 9 -39 22 -47 30 -16 13 -229 134 -237
134 -3 0 -65 29 -138 65 -74 36 -141 65 -150 65 -9 0 -34 9 -57 21 -80 41
-122 50 -238 54 -390 12 -505 18 -527 26 -36 13 -38 11 -12 -10z m764 -2241
c-3 -5 -18 -10 -33 -9 l-27 1 25 8 c35 11 42 11 35 0z m-5 -70 c0 -5 -4 -10
-10 -10 -5 0 -10 5 -10 10 0 6 5 10 10 10 6 0 10 -4 10 -10z m80 0 c0 -5 -4
-10 -10 -10 -5 0 -10 5 -10 10 0 6 5 10 10 10 6 0 10 -4 10 -10z m-152 -32 c5
-18 8 -35 6 -36 -5 -7 -74 20 -74 28 0 10 40 40 52 40 4 0 11 -15 16 -32z m15
-99 c-15 -5 -13 -8 11 -21 18 -10 25 -18 17 -22 -6 -4 -11 -2 -11 4 0 6 -8 10
-17 8 -10 -2 -23 3 -30 12 -11 13 -12 13 -13 -5 0 -19 0 -19 -14 0 -19 29 -17
58 5 52 9 -3 23 -1 30 4 9 6 18 3 27 -8 10 -15 10 -19 -5 -24z m1251 -71 c3
-13 12 -52 20 -88 23 -102 25 -144 10 -165 -13 -18 -14 -18 -14 3 0 15 -8 24
-25 28 -14 3 -34 19 -46 35 -11 16 -28 29 -37 29 -17 1 -62 33 -62 44 0 3 16
3 36 0 34 -5 36 -4 31 15 -3 12 0 24 6 28 7 4 3 9 -9 14 -18 7 -18 8 2 8 26 1
49 26 39 42 -8 12 11 29 32 29 7 0 15 -10 17 -22z m-544 -64 c0 -2 -7 -4 -15
-4 -8 0 -15 4 -15 10 0 5 7 7 15 4 8 -4 15 -8 15 -10z m300 -276 c0 -11 7 -33
16 -50 10 -19 13 -40 9 -57 l-7 -26 -11 23 c-5 12 -16 22 -24 22 -7 0 -13 7
-13 16 0 8 -4 12 -10 9 -5 -3 -10 3 -10 15 0 13 4 19 12 14 8 -5 9 0 6 14 -4
12 -3 22 2 22 4 0 5 12 3 28 -4 26 -4 26 11 8 9 -11 16 -28 16 -38z m-200
-269 c0 -5 -5 -9 -11 -9 -5 0 -7 5 -4 10 3 6 1 10 -4 10 -6 0 -11 5 -11 11 0
8 5 8 15 -1 8 -7 15 -16 15 -21z m-1492 -225 c135 -4 192 -12 192 -25 0 -5
-18 -9 -40 -9 -23 0 -54 -7 -70 -15 -17 -9 -30 -11 -30 -5 0 5 -3 9 -7 8 -5
-1 -19 2 -33 5 -14 4 -47 9 -75 11 -27 3 -51 10 -53 16 -2 5 -10 10 -18 10 -9
0 -12 5 -9 10 4 6 11 8 16 4 5 -3 62 -7 127 -10z m232 -24 c0 -5 -4 -10 -9
-10 -6 0 -13 5 -16 10 -3 6 1 10 9 10 9 0 16 -4 16 -10z m50 0 c0 -5 -8 -10
-17 -10 -15 0 -16 2 -3 10 19 12 20 12 20 0z m-582 -67 l24 -15 -22 -23 c-20
-21 -24 -22 -48 -9 -15 8 -33 14 -39 14 -16 0 -16 2 -3 35 9 23 14 26 38 20
15 -3 38 -13 50 -22z m52 -13 c0 -5 -2 -10 -4 -10 -3 0 -8 5 -11 10 -3 6 -1
10 4 10 6 0 11 -4 11 -10z m103 -22 c10 -5 45 -11 76 -13 32 -1 67 -7 78 -13
12 -7 25 -7 34 -1 18 11 130 11 149 -1 9 -5 19 -5 26 1 6 5 29 9 50 9 22 -1
63 -1 92 -1 45 0 52 -3 52 -20 0 -11 -5 -29 -11 -40 -10 -19 -12 -19 -35 -4
-24 16 -26 15 -45 -9 -15 -20 -30 -26 -58 -26 -20 0 -42 5 -49 12 -9 9 -18 8
-37 -2 -38 -20 -263 0 -282 25 -9 13 -16 15 -25 8 -7 -6 -25 -13 -40 -17 -43
-10 -77 38 -64 90 6 23 10 25 39 19 18 -4 40 -12 50 -17z m-119 -14 c3 -8 2
-12 -4 -9 -6 3 -10 10 -10 16 0 14 7 11 14 -7z m765 -8 c11 -8 15 -8 18 2 7
18 20 14 26 -8 4 -16 -3 -24 -35 -40 -44 -21 -64 -18 -73 11 -12 37 32 61 64
35z m-977 -56 c5 0 26 -16 45 -35 19 -19 39 -35 44 -35 5 0 9 -10 9 -23 0 -29
18 -47 39 -40 9 3 3 -6 -13 -21 -35 -32 -36 -32 -33 -4 1 17 -4 24 -20 26 -13
2 -23 10 -23 17 0 9 6 12 15 9 8 -4 15 -2 15 3 0 5 -13 14 -30 20 -20 7 -30
18 -30 32 0 11 -9 25 -20 31 -11 6 -20 18 -19 28 0 10 3 12 6 5 2 -7 9 -13 15
-13z m-78 -9 c3 -5 -1 -11 -9 -15 -15 -6 -29 7 -18 18 9 9 21 8 27 -3z m1366
-41 c13 -9 13 -10 0 -10 -8 0 -22 5 -30 10 -13 9 -13 10 0 10 8 0 22 -5 30
-10z m-1308 -40 c12 -11 18 -23 14 -27 -4 -5 -13 0 -20 10 -7 9 -18 17 -24 17
-6 0 -14 5 -17 10 -11 18 25 10 47 -10z m1260 0 c-2 -7 3 -10 11 -7 7 3 13 -3
14 -13 2 -22 -27 -36 -38 -18 -6 9 -11 9 -22 0 -12 -10 -16 -9 -21 3 -3 9 0
15 10 15 10 0 14 6 11 14 -3 8 -1 17 6 20 18 7 32 0 29 -14z m-828 -26 c26
-24 28 -25 22 -6 -7 20 -5 21 24 11 17 -6 44 -9 60 -5 19 3 30 1 30 -5 0 -8 5
-7 15 1 8 7 15 8 15 2 0 -12 49 -22 55 -12 3 4 33 11 67 14 35 4 78 8 96 10
31 4 45 -8 20 -17 -23 -8 -1 -18 45 -21 51 -4 67 -11 67 -31 0 -10 -10 -13
-37 -11 -21 2 -44 -1 -51 -7 -25 -20 -94 -26 -119 -10 -16 10 -23 12 -23 4 0
-7 -4 -10 -9 -6 -13 7 -189 17 -323 17 -87 0 -108 2 -108 14 0 8 -4 14 -10 14
-5 0 -10 -4 -10 -10 0 -5 -7 -10 -16 -10 -8 0 -13 4 -9 9 8 13 -32 34 -48 25
-6 -4 -9 -4 -5 1 4 4 3 14 -3 21 -15 18 17 32 34 15 17 -17 134 -14 141 4 9
23 48 18 80 -11z m626 -49 c0 -8 -4 -15 -10 -15 -5 0 -10 7 -10 15 0 8 5 15
10 15 6 0 10 -7 10 -15z m-1013 -21 c0 -11 -26 -13 -65 -5 -2 1 -1 5 2 9 8 14
63 10 63 -4z m973 6 c0 -5 -4 -10 -10 -10 -5 0 -10 5 -10 10 0 6 5 10 10 10 6
0 10 -4 10 -10z m150 -10 c0 -5 -4 -10 -9 -10 -6 0 -13 5 -16 10 -3 6 1 10 9
10 9 0 16 -4 16 -10z m-1102 -61 c-7 -5 -19 -9 -27 -9 -11 0 -11 3 -1 14 6 8
18 12 27 9 12 -5 12 -7 1 -14z m70 -36 c-2 -10 -12 -19 -23 -21 -11 -3 -17 -1
-13 3 4 5 3 14 -3 22 -9 10 -6 13 16 13 20 0 26 -4 23 -17z m42 -45 c0 -5 10
-19 21 -31 l22 -22 -7 26 c-8 35 16 58 40 38 14 -12 14 -14 -2 -26 -12 -9 -13
-13 -4 -13 10 0 9 -4 -3 -18 -23 -25 -21 -35 2 -22 28 14 36 12 21 -5 -7 -8
-17 -15 -23 -15 -6 0 -19 -8 -29 -17 -21 -19 -89 -45 -98 -37 -3 3 3 11 13 18
19 15 22 26 6 26 -6 0 -17 6 -25 14 -11 11 -11 16 -1 20 9 5 9 7 -2 12 -11 5
-11 8 0 15 10 6 11 9 2 9 -9 0 -7 7 4 20 10 11 23 20 31 20 8 0 10 5 6 13 -5
8 -2 8 9 -2 9 -7 17 -18 17 -23z m566 -65 c13 -13 19 -14 22 -5 2 6 8 12 14
12 6 0 8 -6 5 -13 -3 -9 7 -19 28 -27 19 -7 31 -18 28 -23 -4 -6 0 -8 10 -4 9
3 29 -1 44 -9 l28 -16 -31 6 c-18 3 -45 8 -60 11 -22 5 -25 4 -14 -4 13 -9 12
-11 -3 -11 -10 0 -15 -4 -12 -10 3 -5 2 -10 -3 -10 -5 0 -15 -11 -22 -24 -16
-30 -39 -41 -54 -25 -8 9 -7 10 4 5 9 -5 9 -2 -2 7 -19 15 -14 27 11 27 17 0
41 42 41 71 0 11 -11 20 -28 24 -16 3 -29 12 -29 20 0 19 2 19 23 -2z m-236
-3 c0 -5 -8 -10 -17 -10 -15 0 -16 2 -3 10 19 12 20 12 20 0z m186 -10 c18
-13 19 -18 8 -28 -11 -10 -14 -10 -14 5 0 15 -1 15 -12 1 -17 -21 -58 -31 -51
-12 3 8 9 11 14 8 5 -3 9 0 9 6 0 6 -8 10 -17 9 -33 -3 -37 1 -17 15 24 18 53
17 80 -4z m-209 -33 c3 -6 1 -7 -6 -3 -6 4 -19 2 -27 -5 -12 -10 -17 -8 -28 7
-8 10 -12 22 -10 26 6 9 62 -11 71 -25z m-197 -12 c-6 -8 -24 -13 -40 -12 -39
3 -19 27 22 27 26 0 28 -2 18 -15z m230 11 c0 -2 -7 -9 -15 -16 -13 -11 -14
-10 -9 4 5 14 24 23 24 12z m-103 -22 c2 -6 -8 -16 -22 -22 -14 -6 -25 -16
-25 -22 0 -15 -20 -34 -43 -43 -10 -4 -15 -11 -12 -17 3 -5 2 -10 -3 -10 -10
0 -22 23 -22 41 0 5 8 9 18 9 14 0 15 2 2 10 -8 5 -11 10 -7 10 4 0 2 6 -5 14
-7 7 -20 11 -28 9 -8 -2 -4 2 10 11 16 10 40 13 68 10 27 -3 42 -1 42 6 0 14
22 8 27 -6z m283 -8 c0 -2 -7 -7 -16 -10 -8 -3 -12 -2 -9 4 6 10 25 14 25 6z
m150 -71 c0 -16 -27 -32 -37 -21 -7 7 16 36 28 36 5 0 9 -7 9 -15z m420 -945
c0 -5 -5 -10 -11 -10 -5 0 -7 5 -4 10 3 6 8 10 11 10 2 0 4 -4 4 -10z m-140
-90 c0 -5 -4 -10 -10 -10 -5 0 -10 5 -10 10 0 6 5 10 10 10 6 0 10 -4 10 -10z
m-673 -6 c-3 -3 -12 -4 -19 -1 -8 3 -5 6 6 6 11 1 17 -2 13 -5z m538 -42 c-3
-3 -11 0 -18 7 -9 10 -8 11 6 5 10 -3 15 -9 12 -12z m-565 -13 c0 -7 10 -9 28
-5 20 5 23 4 12 -4 -16 -10 -8 -14 24 -10 10 1 28 -7 40 -18 11 -11 38 -23 59
-26 20 -4 37 -11 37 -16 0 -6 15 -10 33 -10 l32 -1 -24 -13 c-14 -8 -26 -21
-27 -31 -3 -21 -8 -26 -31 -29 -20 -3 -60 -73 -55 -98 1 -4 -10 -20 -24 -35
-23 -25 -24 -28 -7 -34 15 -6 15 -8 2 -8 -9 -1 -22 -8 -29 -16 -30 -36 -110 5
-110 57 0 10 -5 18 -11 18 -6 0 -9 6 -6 13 2 6 -1 23 -8 37 -6 14 -20 42 -30
62 -10 20 -17 48 -17 62 0 14 -7 27 -17 30 -9 3 -5 4 9 3 14 -2 24 -8 23 -15
-4 -16 15 -15 33 2 12 13 11 17 -11 34 -29 23 -23 33 13 22 60 -17 82 -33 76
-52 -3 -12 0 -18 10 -18 9 0 16 6 16 14 0 8 6 17 13 19 7 4 3 8 -10 12 -13 4
-23 11 -23 15 0 4 -8 10 -18 12 -18 5 -27 38 -10 38 4 0 8 -5 8 -11z m520 1
c0 -9 -31 -30 -44 -30 -3 0 2 9 11 20 19 21 33 26 33 10z m-255 -10 c-28 -12
-37 -12 -30 0 3 6 16 10 28 9 21 0 21 -1 2 -9z m-91 -26 c6 -16 -39 -20 -49
-4 -3 6 -1 10 5 10 6 0 9 4 6 9 -4 5 3 7 13 4 11 -3 22 -11 25 -19z m236 -2
c0 -10 -46 -10 -56 1 -4 4 7 7 24 7 18 0 32 -4 32 -8z m-10 -26 c0 -2 -7 -6
-15 -10 -8 -3 -15 -1 -15 4 0 6 7 10 15 10 8 0 15 -2 15 -4z m-500 -1186 c-13
-8 -12 -10 3 -10 23 0 33 -26 17 -45 -11 -14 -15 -14 -31 1 -10 9 -15 22 -12
30 3 8 0 14 -7 14 -6 0 -8 5 -5 10 3 6 16 10 28 10 18 0 19 -2 7 -10z m84 -15
c33 -35 39 -66 21 -109 -15 -36 -40 -51 -32 -18 21 74 17 105 -11 95 -14 -5
-15 -3 -5 7 10 11 8 17 -15 32 -26 17 -26 18 -4 18 13 0 34 -11 46 -25z m-124
-25 c0 -11 -4 -20 -9 -20 -14 0 -23 18 -16 30 10 17 25 11 25 -10z m101 -38
c14 -6 15 -9 3 -20 -8 -7 -14 -8 -14 -2 0 5 -7 10 -15 10 -8 0 -15 5 -15 10 0
11 17 12 41 2z m-77 -100 c-8 -11 -46 14 -59 38 -22 43 -19 44 23 3 21 -21 38
-40 36 -41z"/>
<path d="M3580 4010 c0 -5 5 -10 10 -10 6 0 10 5 10 10 0 6 -4 10 -10 10 -5 0
-10 -4 -10 -10z"/>
<path d="M4870 6470 c-12 -8 -9 -10 13 -10 16 0 26 4 22 10 -8 12 -16 12 -35
0z"/>
<path d="M4956 5955 c4 -8 8 -15 10 -15 2 0 4 7 4 15 0 8 -4 15 -10 15 -5 0
-7 -7 -4 -15z"/>
<path d="M2948 5786 c-10 -7 -15 -16 -12 -19 3 -3 -7 -13 -23 -23 -33 -21 -74
-63 -78 -78 -3 -17 -15 -49 -25 -67 -4 -8 -3 -23 2 -33 8 -13 7 -21 -3 -27
-12 -8 -12 -11 1 -19 10 -6 11 -10 3 -10 -29 0 -11 -29 22 -36 39 -7 77 2 58
14 -9 5 -6 11 7 20 17 10 20 10 20 -4 0 -8 4 -13 9 -9 5 3 12 1 15 -4 4 -5 -3
-12 -14 -16 -11 -3 -20 -12 -20 -19 0 -15 -85 -40 -101 -31 -5 4 -9 2 -9 -4 0
-6 16 -13 36 -17 41 -7 28 -24 -18 -24 -16 0 -28 -6 -29 -12 0 -7 -5 -4 -10 7
l-9 20 3 -20 c4 -34 53 -30 162 11 12 5 16 4 12 -3 -4 -6 0 -13 8 -17 8 -3 15
-2 15 3 0 20 40 18 54 -3 9 -11 13 -14 11 -6 -7 23 6 37 42 45 29 6 32 4 26
-11 -5 -14 -2 -16 21 -10 15 4 45 1 66 -5 l40 -12 -31 -28 c-17 -15 -44 -31
-60 -34 -16 -4 -31 -11 -34 -16 -4 -5 -21 -9 -38 -9 -24 -1 -28 -3 -16 -10 23
-13 134 -29 216 -31 47 -1 70 -5 66 -12 -4 -6 3 -8 20 -3 20 5 25 3 21 -8 -3
-8 -14 -16 -25 -19 -31 -8 -22 -27 10 -21 28 6 51 -9 31 -21 -17 -10 -11 -36
8 -34 33 3 43 -1 36 -13 -6 -10 -4 -10 7 0 7 6 22 12 32 12 29 0 78 46 104 98
12 26 20 36 17 22 -4 -20 -3 -22 5 -10 6 8 10 29 9 45 -1 36 19 86 68 167 31
51 35 63 25 84 -6 13 -8 31 -4 40 3 9 1 19 -5 23 -16 10 -21 99 -5 112 18 16
7 28 -20 23 -12 -2 -16 -2 -9 2 6 3 12 9 12 13 0 4 -6 8 -12 8 -7 0 -19 2 -27
4 -8 2 -20 -7 -28 -21 -9 -19 -13 -20 -13 -7 0 13 -8 17 -34 17 -18 0 -39 6
-45 14 -15 18 -95 26 -154 15 -34 -6 -64 -4 -105 6 -84 20 -282 28 -304 11z
m260 -181 c65 -15 40 -25 -108 -45 -41 -5 -85 -13 -97 -16 -40 -11 -25 13 22
36 25 12 45 25 45 28 0 9 95 6 138 -3z m46 -136 c-3 -5 -10 -7 -15 -3 -5 3 -7
10 -3 15 3 5 10 7 15 3 5 -3 7 -10 3 -15z m76 11 c0 -5 -4 -10 -10 -10 -5 0
-10 5 -10 10 0 6 5 10 10 10 6 0 10 -4 10 -10z m-77 -125 c-3 -9 -8 -14 -10
-11 -3 3 -2 9 2 15 9 16 15 13 8 -4z m112 5 c-3 -5 -12 -7 -20 -3 -21 7 -19
13 6 13 11 0 18 -4 14 -10z m-105 -40 c0 -5 -4 -10 -10 -10 -5 0 -10 5 -10 10
0 6 5 10 10 10 6 0 10 -4 10 -10z"/>
<path d="M4952 5790 c0 -8 4 -26 8 -40 6 -20 8 -21 8 -5 0 11 -3 29 -8 40 -5
12 -8 14 -8 5z"/>
<path d="M3793 5703 c-7 -3 -13 -11 -13 -18 0 -16 28 -27 44 -18 10 6 10 12
-3 24 -9 9 -22 14 -28 12z"/>
<path d="M3952 5608 c-16 -16 -15 -28 3 -28 8 0 15 9 15 20 0 23 -2 24 -18 8z"/>
<path d="M5000 5570 c0 -7 8 -19 18 -26 16 -13 16 -13 -1 -14 -25 0 -11 -20
14 -20 11 0 22 -7 25 -15 9 -23 24 -18 24 9 0 13 -7 26 -15 30 -8 3 -15 13
-15 21 0 9 -5 13 -10 10 -6 -4 -17 -1 -25 5 -12 10 -15 10 -15 0z"/>
<path d="M3978 5533 c7 -3 16 -2 19 1 4 3 -2 6 -13 5 -11 0 -14 -3 -6 -6z"/>
<path d="M5076 5461 c-8 -12 12 -66 21 -58 3 4 7 20 9 37 3 21 -1 30 -11 30
-7 0 -16 -4 -19 -9z"/>
<path d="M5130 5230 c0 -5 5 -10 10 -10 6 0 10 5 10 10 0 6 -4 10 -10 10 -5 0
-10 -4 -10 -10z"/>
<path d="M3295 5210 c-4 -6 -3 -16 3 -22 6 -6 12 -6 17 2 4 6 3 16 -3 22 -6 6
-12 6 -17 -2z"/>
<path d="M3580 5184 c0 -34 17 -38 22 -6 3 19 0 29 -9 29 -7 0 -13 -11 -13
-23z"/>
<path d="M4780 5125 c0 -8 -9 -15 -19 -15 -11 0 -23 -5 -26 -11 -5 -7 4 -8 27
-4 26 5 41 1 71 -19 21 -14 51 -32 66 -41 16 -8 36 -22 45 -30 9 -9 16 -12 16
-7 0 5 -8 16 -19 26 -12 11 -16 25 -13 41 4 25 -13 36 -20 14 -5 -15 -41 3
-75 37 -27 27 -53 31 -53 9z"/>
<path d="M3882 5060 c0 -14 2 -19 5 -12 2 6 2 18 0 25 -3 6 -5 1 -5 -13z"/>
<path d="M4990 5064 c0 -9 41 -44 52 -44 16 0 8 18 -17 34 -26 17 -35 20 -35
10z"/>
<path d="M3924 5035 c-10 -7 -29 -11 -41 -8 -32 7 -29 -15 3 -27 28 -11 44 -6
44 15 0 7 8 15 18 17 11 2 13 6 6 10 -6 4 -20 1 -30 -7z"/>
<path d="M3420 4991 c0 -14 -5 -18 -20 -14 -15 4 -19 1 -15 -9 3 -8 17 -13 35
-12 33 2 60 -29 60 -71 0 -16 6 -25 15 -25 8 0 15 6 15 14 0 7 8 16 18 19 11
2 22 17 25 36 10 51 -38 92 -71 59 -9 -9 -16 -8 -30 5 -24 22 -32 21 -32 -2z"/>
<path d="M3525 4859 c-4 -11 -3 -25 3 -31 6 -6 11 0 14 17 6 31 -8 43 -17 14z"/>
<path d="M4500 4849 c0 -5 5 -7 10 -4 6 3 10 8 10 11 0 2 -4 4 -10 4 -5 0 -10
-5 -10 -11z"/>
<path d="M5011 4834 c0 -11 3 -14 6 -6 3 7 2 16 -1 19 -3 4 -6 -2 -5 -13z"/>
<path d="M3765 4810 c3 -5 10 -10 16 -10 5 0 9 5 9 10 0 6 -7 10 -16 10 -8 0
-12 -4 -9 -10z"/>
<path d="M5080 4786 c0 -26 4 -34 14 -30 9 3 15 -4 18 -20 3 -15 0 -27 -8 -30
-16 -6 -18 -54 -5 -75 8 -12 12 -12 25 -2 21 18 18 88 -6 128 -10 17 -17 37
-16 43 2 7 -3 15 -9 17 -9 3 -13 -7 -13 -31z"/>
<path d="M5025 4800 c3 -5 8 -10 11 -10 2 0 4 5 4 10 0 6 -5 10 -11 10 -5 0
-7 -4 -4 -10z"/>
<path d="M5635 4719 c-4 -6 -5 -12 -2 -15 2 -3 7 2 10 11 7 17 1 20 -8 4z"/>
<path d="M5630 4657 c0 -9 -3 -16 -7 -15 -18 3 -63 -23 -73 -42 -13 -25 -4
-80 14 -80 11 0 27 27 69 117 6 13 7 26 4 30 -4 3 -7 -1 -7 -10z"/>
<path d="M4670 4630 c0 -5 5 -10 10 -10 6 0 10 5 10 10 0 6 -4 10 -10 10 -5 0
-10 -4 -10 -10z"/>
<path d="M5472 4469 c2 -7 10 -15 17 -17 8 -3 12 1 9 9 -2 7 -10 15 -17 17 -8
3 -12 -1 -9 -9z"/>
</g>
</svg>
